<svg width="267" height="60" viewBox="0 0 267 60" fill="none" xmlns="http://www.w3.org/2000/svg">
<path d="M79.2017 45V15.9091H91.2188C93.3968 15.9091 95.2765 16.3352 96.858 17.1875C98.4489 18.0303 99.6752 19.2093 100.537 20.7244C101.399 22.2301 101.83 23.982 101.83 25.9801C101.83 27.9877 101.389 29.7443 100.509 31.25C99.6373 32.7462 98.392 33.9062 96.7727 34.7301C95.1534 35.554 93.2311 35.9659 91.0057 35.9659H83.5909V30.4261H89.6989C90.7595 30.4261 91.6449 30.2415 92.3551 29.8722C93.0748 29.5028 93.6193 28.9867 93.9886 28.3239C94.358 27.6515 94.5426 26.8703 94.5426 25.9801C94.5426 25.0805 94.358 24.304 93.9886 23.6506C93.6193 22.9877 93.0748 22.4763 92.3551 22.1165C91.6354 21.7566 90.75 21.5767 89.6989 21.5767H86.233V45H79.2017ZM110.665 45.3693C109.273 45.3693 108.037 45.1373 106.957 44.6733C105.887 44.1998 105.04 43.4896 104.415 42.5426C103.799 41.5862 103.491 40.3883 103.491 38.9489C103.491 37.7367 103.705 36.714 104.131 35.8807C104.557 35.0473 105.144 34.3703 105.892 33.8494C106.64 33.3286 107.502 32.9356 108.477 32.6705C109.453 32.3958 110.494 32.2112 111.602 32.1165C112.843 32.0028 113.842 31.8845 114.599 31.7614C115.357 31.6288 115.906 31.4441 116.247 31.2074C116.598 30.9612 116.773 30.6155 116.773 30.1705V30.0994C116.773 29.3703 116.522 28.8068 116.02 28.4091C115.518 28.0114 114.841 27.8125 113.989 27.8125C113.07 27.8125 112.331 28.0114 111.773 28.4091C111.214 28.8068 110.859 29.3561 110.707 30.0568L104.301 29.8295C104.491 28.5038 104.978 27.3201 105.764 26.2784C106.56 25.2273 107.649 24.4034 109.031 23.8068C110.423 23.2008 112.095 22.8977 114.045 22.8977C115.438 22.8977 116.721 23.0634 117.895 23.3949C119.069 23.7169 120.092 24.1903 120.963 24.8153C121.834 25.4309 122.507 26.1884 122.98 27.0881C123.463 27.9877 123.705 29.0152 123.705 30.1705V45H117.17V41.9602H117C116.612 42.6989 116.115 43.3239 115.509 43.8352C114.912 44.3466 114.206 44.7301 113.392 44.9858C112.587 45.2415 111.678 45.3693 110.665 45.3693ZM112.81 40.8239C113.558 40.8239 114.23 40.6723 114.827 40.3693C115.433 40.0663 115.916 39.6496 116.276 39.1193C116.635 38.5795 116.815 37.9545 116.815 37.2443V35.1705C116.616 35.2746 116.375 35.3693 116.091 35.4545C115.816 35.5398 115.513 35.6203 115.182 35.696C114.85 35.7718 114.509 35.8381 114.159 35.8949C113.809 35.9517 113.473 36.0038 113.151 36.0511C112.497 36.1553 111.938 36.3163 111.474 36.5341C111.02 36.7519 110.67 37.036 110.423 37.3864C110.187 37.7273 110.068 38.1345 110.068 38.608C110.068 39.3277 110.324 39.8769 110.835 40.2557C111.356 40.6345 112.014 40.8239 112.81 40.8239ZM140.267 23.1818V28.2955H126.503V23.1818H140.267ZM129.386 17.9545H136.332V38.1392C136.332 38.5653 136.399 38.911 136.531 39.1761C136.673 39.4318 136.877 39.6165 137.142 39.7301C137.407 39.8343 137.724 39.8864 138.094 39.8864C138.359 39.8864 138.638 39.8627 138.932 39.8153C139.235 39.7585 139.462 39.7112 139.614 39.6733L140.665 44.6875C140.333 44.7822 139.865 44.9006 139.259 45.0426C138.662 45.1847 137.947 45.2746 137.114 45.3125C135.485 45.3883 134.088 45.1989 132.923 44.7443C131.768 44.2803 130.883 43.5606 130.267 42.5852C129.661 41.6098 129.367 40.3835 129.386 38.9062V17.9545ZM157.888 35.5824V23.1818H164.82V45H158.2V40.9375H157.973C157.49 42.2727 156.666 43.3333 155.501 44.1193C154.346 44.8958 152.949 45.2841 151.311 45.2841C149.824 45.2841 148.518 44.9432 147.391 44.2614C146.264 43.5795 145.388 42.6278 144.763 41.4062C144.138 40.1752 143.821 38.7358 143.811 37.0881V23.1818H150.757V35.7244C150.767 36.9081 151.079 37.8409 151.695 38.5227C152.31 39.2045 153.148 39.5455 154.209 39.5455C154.9 39.5455 155.52 39.3939 156.07 39.0909C156.628 38.7784 157.069 38.3286 157.391 37.7415C157.722 37.1449 157.888 36.4252 157.888 35.5824ZM176.187 32.5568V45H169.241V23.1818H175.846V27.1875H176.087C176.57 25.8523 177.394 24.8059 178.559 24.0483C179.724 23.2812 181.111 22.8977 182.721 22.8977C184.255 22.8977 185.585 23.2434 186.712 23.9347C187.849 24.6165 188.729 25.5729 189.354 26.804C189.989 28.0256 190.301 29.4555 190.292 31.0938V45H183.346V32.4574C183.355 31.2453 183.048 30.2983 182.423 29.6165C181.807 28.9347 180.95 28.5938 179.852 28.5938C179.122 28.5938 178.478 28.7547 177.92 29.0767C177.371 29.3892 176.944 29.839 176.641 30.4261C176.348 31.0133 176.196 31.7235 176.187 32.5568ZM204.763 53.6364C202.689 53.6364 200.913 53.3475 199.436 52.7699C197.959 52.1922 196.799 51.4015 195.956 50.3977C195.113 49.3939 194.607 48.2576 194.436 46.9886L201.013 46.6193C201.136 47.0644 201.363 47.4527 201.695 47.7841C202.036 48.1155 202.476 48.3712 203.016 48.5511C203.565 48.7311 204.209 48.821 204.947 48.821C206.112 48.821 207.073 48.5369 207.831 47.9688C208.598 47.41 208.982 46.4299 208.982 45.0284V41.1932H208.74C208.465 41.8655 208.049 42.4669 207.49 42.9972C206.931 43.5275 206.235 43.9441 205.402 44.2472C204.578 44.5502 203.631 44.7017 202.561 44.7017C200.97 44.7017 199.512 44.3324 198.186 43.5938C196.87 42.8456 195.814 41.6903 195.018 40.1278C194.232 38.5559 193.839 36.5341 193.839 34.0625C193.839 31.5152 194.247 29.4176 195.061 27.7699C195.875 26.1127 196.941 24.8864 198.257 24.0909C199.583 23.2955 201.008 22.8977 202.533 22.8977C203.679 22.8977 204.659 23.0966 205.473 23.4943C206.297 23.8826 206.974 24.3845 207.504 25C208.035 25.6155 208.437 26.2547 208.712 26.9176H208.911V23.1818H215.828V45.0852C215.828 46.9318 215.364 48.4896 214.436 49.7585C213.508 51.0275 212.211 51.9886 210.544 52.642C208.877 53.3049 206.95 53.6364 204.763 53.6364ZM204.976 39.6449C205.819 39.6449 206.538 39.4223 207.135 38.9773C207.732 38.5322 208.191 37.893 208.513 37.0597C208.835 36.2263 208.996 35.2273 208.996 34.0625C208.996 32.8788 208.835 31.8608 208.513 31.0085C208.2 30.1468 207.741 29.4839 207.135 29.0199C206.538 28.5559 205.819 28.3239 204.976 28.3239C204.114 28.3239 203.385 28.5606 202.788 29.0341C202.192 29.5076 201.737 30.1752 201.425 31.0369C201.122 31.8892 200.97 32.8977 200.97 34.0625C200.97 35.2273 201.126 36.2263 201.439 37.0597C201.751 37.893 202.201 38.5322 202.788 38.9773C203.385 39.4223 204.114 39.6449 204.976 39.6449ZM226.407 45.3693C225.015 45.3693 223.779 45.1373 222.7 44.6733C221.629 44.1998 220.782 43.4896 220.157 42.5426C219.541 41.5862 219.234 40.3883 219.234 38.9489C219.234 37.7367 219.447 36.714 219.873 35.8807C220.299 35.0473 220.886 34.3703 221.634 33.8494C222.382 33.3286 223.244 32.9356 224.219 32.6705C225.195 32.3958 226.237 32.2112 227.344 32.1165C228.585 32.0028 229.584 31.8845 230.342 31.7614C231.099 31.6288 231.648 31.4441 231.989 31.2074C232.34 30.9612 232.515 30.6155 232.515 30.1705V30.0994C232.515 29.3703 232.264 28.8068 231.762 28.4091C231.26 28.0114 230.583 27.8125 229.731 27.8125C228.812 27.8125 228.074 28.0114 227.515 28.4091C226.956 28.8068 226.601 29.3561 226.45 30.0568L220.043 29.8295C220.233 28.5038 220.72 27.3201 221.506 26.2784C222.302 25.2273 223.391 24.4034 224.773 23.8068C226.165 23.2008 227.837 22.8977 229.788 22.8977C231.18 22.8977 232.463 23.0634 233.637 23.3949C234.811 23.7169 235.834 24.1903 236.705 24.8153C237.576 25.4309 238.249 26.1884 238.722 27.0881C239.205 27.9877 239.447 29.0152 239.447 30.1705V45H232.913V41.9602H232.742C232.354 42.6989 231.857 43.3239 231.251 43.8352C230.654 44.3466 229.949 44.7301 229.134 44.9858C228.329 45.2415 227.42 45.3693 226.407 45.3693ZM228.552 40.8239C229.3 40.8239 229.972 40.6723 230.569 40.3693C231.175 40.0663 231.658 39.6496 232.018 39.1193C232.378 38.5795 232.558 37.9545 232.558 37.2443V35.1705C232.359 35.2746 232.117 35.3693 231.833 35.4545C231.558 35.5398 231.255 35.6203 230.924 35.696C230.593 35.7718 230.252 35.8381 229.901 35.8949C229.551 35.9517 229.215 36.0038 228.893 36.0511C228.239 36.1553 227.681 36.3163 227.217 36.5341C226.762 36.7519 226.412 37.036 226.165 37.3864C225.929 37.7273 225.81 38.1345 225.81 38.608C225.81 39.3277 226.066 39.8769 226.577 40.2557C227.098 40.6345 227.756 40.8239 228.552 40.8239ZM250.64 32.5568V45H243.694V23.1818H250.299V27.1875H250.54C251.023 25.8523 251.847 24.8059 253.012 24.0483C254.177 23.2812 255.564 22.8977 257.174 22.8977C258.708 22.8977 260.039 23.2434 261.165 23.9347C262.302 24.6165 263.183 25.5729 263.808 26.804C264.442 28.0256 264.754 29.4555 264.745 31.0938V45H257.799V32.4574C257.808 31.2453 257.501 30.2983 256.876 29.6165C256.26 28.9347 255.403 28.5938 254.305 28.5938C253.576 28.5938 252.932 28.7547 252.373 29.0767C251.824 29.3892 251.397 29.839 251.094 30.4261C250.801 31.0133 250.649 31.7235 250.64 32.5568Z" fill="white"/>
<rect width="60" height="60" rx="10" fill="url(#paint0_linear_167_41)"/>
<path d="M42.25 21.25V16C42.25 15.5359 42.0656 15.0908 41.7374 14.7626C41.4092 14.4344 40.9641 14.25 40.5 14.25H17.75C16.8217 14.25 15.9315 14.6187 15.2751 15.2751C14.6187 15.9315 14.25 16.8217 14.25 17.75C14.25 18.6783 14.6187 19.5685 15.2751 20.2249C15.9315 20.8813 16.8217 21.25 17.75 21.25H44C44.4641 21.25 44.9092 21.4344 45.2374 21.7626C45.5656 22.0908 45.75 22.5359 45.75 23V30M45.75 30H40.5C39.5717 30 38.6815 30.3687 38.0251 31.0251C37.3687 31.6815 37 32.5717 37 33.5C37 34.4283 37.3687 35.3185 38.0251 35.9749C38.6815 36.6313 39.5717 37 40.5 37H45.75C46.2141 37 46.6592 36.8156 46.9874 36.4874C47.3156 36.1592 47.5 35.7141 47.5 35.25V31.75C47.5 31.2859 47.3156 30.8408 46.9874 30.5126C46.6592 30.1844 46.2141 30 45.75 30Z" stroke="white" stroke-width="2" stroke-linecap="round" stroke-linejoin="round"/>
<path d="M14.25 17.75V42.25C14.25 43.1783 14.6187 44.0685 15.2751 44.7249C15.9315 45.3813 16.8217 45.75 17.75 45.75H44C44.4641 45.75 44.9092 45.5656 45.2374 45.2374C45.5656 44.9092 45.75 44.4641 45.75 44V37" stroke="white" stroke-width="2" stroke-linecap="round" stroke-linejoin="round"/>
<defs>
<linearGradient id="paint0_linear_167_41" x1="5" y1="30" x2="53" y2="30" gradientUnits="userSpaceOnUse">
<stop stop-color="#9162F2"/>
<stop offset="1" stop-color="#03B1DC"/>
</linearGradient>
</defs>
</svg>
